<svg width="17" height="19" viewBox="0 0 17 19" fill="none" xmlns="http://www.w3.org/2000/svg">
<path d="M16.625 19L14.583 17.2L13.432 16.13L12.215 15L12.715 16.759H1.94701C0.868629 16.7551 -0.00275325 15.8784 6.53738e-06 14.8V1.957C-0.00164827 0.879393 0.869412 0.00385914 1.94701 0H14.678C15.7556 0.00385914 16.6267 0.879393 16.625 1.957V19ZM12.1 10.508C11.6784 11.0735 11.0713 11.4728 10.385 11.636C10.667 11.996 11.007 12.403 11.01 12.407C12.1571 12.4312 13.2433 11.8917 13.917 10.963C13.8825 9.03771 13.4149 7.14491 12.549 5.425C11.7866 4.82677 10.8586 4.47763 9.89101 4.425H9.88001L9.74701 4.577C10.6113 4.80915 11.4173 5.22 12.113 5.783C11.2278 5.29641 10.2565 4.98665 9.25301 4.871C8.61524 4.80017 7.97125 4.80654 7.33501 4.89C7.29003 4.89089 7.24521 4.89557 7.20101 4.904H7.17301C6.42736 4.98985 5.69982 5.19232 5.01701 5.504C4.67501 5.661 4.46501 5.775 4.45601 5.779C4.44701 5.783 4.45601 5.779 4.45601 5.772C5.1939 5.19164 6.04518 4.7723 6.95501 4.541L6.85501 4.427H6.84901C5.8814 4.47976 4.95344 4.82888 4.19101 5.427C3.32192 7.14573 2.85417 9.03928 2.82301 10.965C3.48835 11.8999 4.57601 12.4415 5.72301 12.409C5.72301 12.409 6.08101 11.973 6.36001 11.62C5.69101 11.4519 5.10153 11.0558 4.69301 10.5C4.70001 10.505 4.79901 10.572 4.95901 10.66C4.96976 10.6726 4.98305 10.6829 4.99801 10.69C5.01068 10.6988 5.02406 10.7065 5.03801 10.713C5.05383 10.7202 5.0689 10.7289 5.08301 10.739C5.30612 10.862 5.53771 10.9689 5.77601 11.059C6.22909 11.2384 6.69774 11.3756 7.17601 11.469C7.59476 11.5479 8.01989 11.5881 8.44601 11.589C8.84555 11.589 9.24423 11.5521 9.63701 11.479C10.1101 11.3959 10.5721 11.259 11.014 11.071C11.3958 10.9242 11.76 10.7353 12.1 10.508ZM10.062 10.081C9.62694 10.1189 9.2132 9.88591 9.02013 9.49419C8.82705 9.10246 8.89425 8.63239 9.18934 8.31044C9.48443 7.9885 9.94689 7.88072 10.3539 8.03903C10.7609 8.19735 11.029 8.58928 11.029 9.026C11.051 9.58391 10.6188 10.0551 10.061 10.081H10.062ZM6.59401 10.081C6.04686 10.0333 5.62697 9.57523 5.62697 9.026C5.62697 8.47677 6.04686 8.01869 6.59401 7.971C6.84606 7.97177 7.08704 8.07458 7.26201 8.256C7.46055 8.46207 7.56855 8.73892 7.56201 9.025C7.58516 9.58387 7.15181 10.0561 6.59301 10.081H6.59401Z" fill="#3056B6"/>
</svg>
