<svg width="20" height="20" viewBox="0 0 20 20" fill="none" xmlns="http://www.w3.org/2000/svg">
<path d="M9.97719 2.64914e-07C5.08412 -0.000628249 0.913003 3.54799 0.129587 8.37793C-0.653829 13.2079 2.18178 17.893 6.82419 19.439C7.32419 19.529 7.50319 19.222 7.50319 18.958C7.50319 18.721 7.49519 18.093 7.49219 17.258C4.71719 17.858 4.13119 15.92 4.13119 15.92C3.9485 15.317 3.55577 14.7993 3.02419 14.461C2.12419 13.842 3.09319 13.856 3.09319 13.856C3.73387 13.9438 4.29774 14.3235 4.62019 14.884C4.89312 15.3803 5.35295 15.747 5.89749 15.9026C6.44204 16.0583 7.0262 15.99 7.52019 15.713C7.56661 15.207 7.79173 14.7341 8.15519 14.379C5.94119 14.128 3.61319 13.272 3.61319 9.449C3.6009 8.4602 3.96809 7.5043 4.63919 6.778C4.33554 5.91731 4.3713 4.97325 4.73919 4.138C4.73919 4.138 5.57619 3.869 7.48119 5.159C9.11504 4.71101 10.8393 4.71101 12.4732 5.159C14.3792 3.868 15.2152 4.138 15.2152 4.138C15.5848 4.97286 15.6206 5.91757 15.3152 6.778C15.9887 7.50423 16.3556 8.46264 16.3392 9.453C16.3392 13.286 14.0092 14.128 11.7872 14.375C12.2665 14.8651 12.5123 15.5373 12.4622 16.221C12.4622 17.555 12.4502 18.631 12.4502 18.958C12.4502 19.225 12.6282 19.535 13.1372 19.437C17.7777 17.8884 20.6102 13.203 19.8252 8.37432C19.0402 3.54565 14.8692 -0.00111917 9.97719 2.64914e-07Z" fill="#2E3A59"/>
</svg>
