<svg xmlns="http://www.w3.org/2000/svg" width="14" height="20" fill="none" viewBox="0 0 14 20"><path fill="#38C516" d="M10 20H4V18H10V20ZM10 17H4L3.777 15C3.65703 14.3385 3.45863 13.6936 3.186 13.079C2.832 12.579 2.463 12.152 2.106 11.735C0.794114 10.5053 0.0346512 8.79777 0 7C0 3.13401 3.13401 0 7 0C10.866 0 14 3.13401 14 7C13.9593 8.7868 13.2057 10.4831 11.907 11.711L11.89 11.731C11.534 12.148 11.166 12.58 10.819 13.075C10.5466 13.6912 10.3476 14.3373 10.226 15L10 17ZM7 2C4.23995 2.00331 2.00331 4.23995 2 7C2 8.544 2.644 9.293 3.618 10.428C3.988 10.86 4.408 11.348 4.818 11.919C5.31557 12.8858 5.65552 13.9259 5.825 15H8.176C8.34985 13.929 8.68925 12.8916 9.182 11.925C9.582 11.354 10.001 10.863 10.37 10.431L10.385 10.413C11.357 9.273 12 8.52 12 7C11.9967 4.23995 9.76005 2.00331 7 2Z"/></svg>