<svg xmlns="http://www.w3.org/2000/svg" width="19" height="19" fill="none" viewBox="0 0 19 19"><path fill="#EC7D36" d="M1.00398 18.2193C0.723461 18.2188 0.456046 18.1005 0.266978 17.8933C0.0744233 17.6877 -0.0212578 17.4098 0.00397781 17.1293L0.248978 14.4353L11.567 3.12129L15.104 6.65729L3.78898 17.9703L1.09498 18.2153C1.06398 18.2183 1.03298 18.2193 1.00398 18.2193ZM15.81 5.95029L12.274 2.41429L14.395 0.293287C14.5825 0.10551 14.8371 0 15.1025 0C15.3679 0 15.6224 0.10551 15.81 0.293287L17.931 2.41429C18.1188 2.60185 18.2243 2.85638 18.2243 3.12179C18.2243 3.3872 18.1188 3.64172 17.931 3.82929L15.811 5.94929L15.81 5.95029Z"/></svg>